PathFileType	4	(X/Y/Z)	Patient4_TMGait_0pt6_01_right_47.trc.trc
DataRate	CameraRate	NumFrames	NumMarkers	Units	OrigDataRate	OrigDataStartFrame	OrigNumFrames
80.924855491330	80.924855491330	4	33	mm	80.924855491330	1	       141
Frame#	Time	Sacral			L.Shoulder			Chest			R.Shoulder			Neck			R.ASIS			L.ASIS			R.Thigh.Superior			R.Thigh.Lateral			R.Thigh.Inferior			R.Patella			L.Thigh.Superior			L.Thigh.Lateral			L.Thigh.Inferior			L.Patella			L.Shank.Superior			L.Shank.Lateral			L.Shank.Inferior			R.Shank.Superior			R.Shank.Lateral			R.Shank.Inferior			R.Heel			R.Midfoot.Superior			R.Midfoot.Lateral			R.Toe			L.Heel			L.Midfoot.Lateral			L.Midfoot.Superior			L.Toe			L.Elbow			L.Wrist			R.Elbow			R.Wrist			
		X1	Y1	Z1	X2	Y2	Z2	X3	Y3	Z3	X4	Y4	Z4	X5	Y5	Z5	X6	Y6	Z6	X7	Y7	Z7	X8	Y8	Z8	X9	Y9	Z9	X10	Y10	Z10	X11	Y11	Z11	X12	Y12	Z12	X13	Y13	Z13	X14	Y14	Z14	X15	Y15	Z15	X16	Y16	Z16	X17	Y17	Z17	X18	Y18	Z18	X19	Y19	Z19	X20	Y20	Z20	X21	Y21	Z21	X22	Y22	Z22	X23	Y23	Z23	X24	Y24	Z24	X25	Y25	Z25	X26	Y26	Z26	X27	Y27	Z27	X28	Y28	Z28	X29	Y29	Z29	X30	Y30	Z30	X31	Y31	Z31	X32	Y32	Z32	X33	Y33	Z33	

1	56.600000000000	798.273066934044	1010.949406658957	405.316729420735	973.088503555339	1445.086224259038	242.897543294175	1075.389095882582	1370.963276540538	401.397893771448	988.520394397264	1434.503498071388	577.076814221797	952.474910552953	1498.460444007195	400.007541072667	1024.389780878629	943.616899496256	522.493240579659	1012.165944130810	954.203101829363	238.071918326907	1102.951077725397	769.376615905438	492.331108928858	1058.384763669399	648.702248708345	563.061634679499	1148.982963472282	607.988637019811	485.150193699702	1163.340954611049	492.882627836218	505.147376494780	1061.232530078455	751.708977677523	276.332776224902	967.964924224080	637.864068083582	222.832262670099	1049.038535640103	558.666295326522	287.626426799758	1046.567537237606	489.881827705095	300.823078896638	1021.549274891244	418.531318172683	293.682885246229	934.242050406565	302.932505695262	241.888802776930	980.607390282466	193.827910594746	319.058157735267	1083.048512048240	421.465383749815	509.313627822928	958.272554169304	388.216573921935	566.538522002860	938.474964181595	281.195052274294	515.549484833700	734.215215367275	229.390804699220	481.904087222986	899.257700024261	163.025220230359	525.185832706054	788.861625646549	166.270901800202	555.590526941476	959.101858315303	48.251536823685	552.963205709788	850.717053629304	38.463362514200	360.671206464710	926.963292711426	35.084278240138	281.797499635673	1009.189139910288	96.218412094254	310.682353959716	1139.076708795357	43.360121973401	286.924316297710	986.299752960363	1101.333790925715	96.819153674663	1203.538768480837	958.597597647912	102.026988184953	916.611057371158	1085.898573060282	672.324870482361	987.354893939526	833.330219295813	656.452398889485	
2	56.612357142857	797.457937676414	1011.385526907030	403.987278638357	974.218246604771	1445.789491975759	242.605901147034	1074.929476522427	1371.285905985478	401.866978606945	986.692979427401	1434.778230978903	576.807824735666	952.022284450646	1499.044258896294	399.321149904575	1022.628168426259	944.645128053704	522.710964206765	1014.012168493579	958.455636558918	240.739386355688	1103.614893509514	773.197190184133	492.156603693065	1061.723530767486	651.829308538647	563.079305168514	1152.559742923404	612.722009560929	484.721923480145	1169.784223955686	498.541733113634	504.985405182567	1058.354613795169	750.714916246058	277.493680197891	964.084198247142	637.989681950466	222.775436482413	1043.284510832743	557.812831261085	288.293941648392	1039.890511692930	489.254073661315	301.389268542176	1014.822657816328	418.208305247562	293.899738506657	927.284704303913	302.932151272949	241.904858505828	973.021550730278	193.684180503966	319.180209400613	1092.183841403064	424.879875516870	509.354891249099	969.143513139542	386.342916834491	566.256334781395	954.369537212175	278.623792910016	515.397063258387	753.236241211285	217.830282920930	481.319934791574	920.517350484505	159.117409986535	525.058401704473	810.283003079248	157.455587991527	555.292565778031	985.186679639923	47.398839377392	553.282707407155	842.771504737797	38.434668936122	360.646888055966	919.053612489351	35.042792958867	281.791569980238	1001.283047125481	96.194235763279	310.689837032422	1131.170390510351	43.323924237211	286.923056950823	990.662020628240	1102.865338849694	96.090444843411	1213.810228742831	972.797006430033	103.153565961934	907.232844638067	1088.285214887945	670.737719740355	962.962288383625	833.401750120745	659.601505875031	
3	56.624714285714	796.647753768924	1011.798048497009	402.684484218983	975.368758015013	1446.453636234563	242.339208109768	1074.489308823671	1371.577583696112	402.360692694211	984.882553236773	1435.033485146058	576.553973253957	951.600476994575	1499.582849738627	398.687363586203	1020.877324527770	945.630871796198	522.951960856727	1015.671505648072	962.358016327546	243.260711322665	1104.206686526020	776.901142009964	492.008892315282	1064.918825786597	654.860970783869	563.104865021683	1155.949744068053	617.308537314695	484.295183650633	1175.987017238916	504.093582019054	504.837282891468	1055.507160504313	749.719957629401	278.671004608612	960.245423304787	638.108829056565	222.715222767960	1037.575484788297	556.964993201696	288.950004839128	1033.266322816294	488.634797357352	301.936112969149	1008.152864972802	417.885932809466	294.110244272543	920.395526189528	302.926716886202	241.911882552003	965.503982804423	193.537402285455	319.299324068030	1101.137513924041	428.211963020060	509.419542254197	979.935066136128	384.342631079591	566.032835890158	970.232705511864	275.984487951780	515.302599480205	772.347611613199	206.148573375445	480.828709347732	941.811945630599	155.183942734560	525.005465014409	831.804375726995	148.575442118377	555.092028486935	1011.327523988021	46.606147632454	553.666961520910	834.907422762546	38.407282938854	360.617421600909	911.222460112377	35.003116557960	281.783447214245	993.453901189602	96.170064345244	310.698016494693	1123.344021422565	43.286217337145	286.922611053571	994.950240160640	1104.345608649837	95.399256554831	1223.804881748695	986.869617554192	104.310127878971	897.914147738699	1090.705456313325	669.232678138330	939.078992047877	833.705605372781	662.681997794724	
4	56.637071428571	795.847848681145	1012.160177420390	401.437181637161	976.560309026980	1447.032501614093	242.126770887733	1074.088044590627	1371.801079908872	402.908314789471	983.109686667808	1435.251095859118	576.335878915925	951.238205616577	1500.030750135392	398.153248422551	1019.147812369457	946.527006170871	523.247954215102	1017.004770612872	965.616945623071	245.523969023287	1104.632946503232	780.349283992935	491.927630409357	1067.795150424788	657.680255573678	563.166168059386	1158.948077691344	621.580304245015	483.899795711291	1181.692922114014	509.421527127402	504.731378171335	1052.712236815815	748.717636623626	279.875317075482	956.476082502740	638.210698676040	222.653882752524	1031.943948167359	556.123359131718	289.586051040671	1026.733422802167	488.025784325156	302.449039622147	1001.575646556187	417.560537449209	294.311228913732	913.612295968985	302.911749101305	241.905648591176	958.087122654772	193.383645914216	319.414006164544	1109.726540471690	431.381578702259	509.540330744170	990.603048965026	382.097849776780	565.941439669941	986.074438329773	273.243436790495	515.328423158366	791.742287606222	194.254057549734	480.536174669543	963.240088419247	151.259397943593	525.094974207144	853.624847458194	139.612985987198	555.086013161187	1037.639257617223	46.032450263244	554.158596903038	827.160088053428	38.384686649877	360.578395255769	903.501327317368	34.967714417196	281.771416458191	985.733379941371	96.145542668931	310.707924539173	1115.629617714846	43.244427406093	286.923778732435	999.116591322637	1105.719429890116	94.787219210325	1233.270582149730	1000.691529717498	105.549112570020	888.719029033152	1093.197493012277	667.893240501129	916.182822709255	834.447254730734	665.641808006134	
